<?xml version="1.0" encoding="iso-8859-1"?>
<!-- Generator: Adobe Illustrator 19.0.0, SVG Export Plug-In . SVG Version: 6.00 Build 0)  -->
<svg version="1.1" id="Layer_1" xmlns="http://www.w3.org/2000/svg" xmlns:xlink="http://www.w3.org/1999/xlink" x="0px" y="0px"
	 viewBox="0 0 512 512" style="enable-background:new 0 0 512 512;" xml:space="preserve">
<path style="fill:#B7364A;" d="M144.136,119.389H51.287c24.642,89.942,106.951,156.041,204.713,156.041
	s180.071-66.1,204.713-156.041H164.415"/>
<g>
	<rect x="117.151" y="496.792" style="fill:#491E17;" width="277.697" height="15.208"/>
	<path style="fill:#491E17;" d="M352.656,208.076c-28.67,19.191-62.094,29.335-96.656,29.335v15.208
		c37.585,0,73.934-11.033,105.116-31.905L352.656,208.076z"/>
	<path style="fill:#491E17;" d="M414.311,167.127l-12.701-8.366c-9.273,14.079-20.52,26.738-33.426,37.623l9.806,11.625
		C392.012,196.181,404.232,182.426,414.311,167.127z"/>
	<path style="fill:#491E17;" d="M475.855,0H36.144v63.177c0,16.397,1.824,32.703,5.415,48.608h-0.239l2.634,9.613
		c0.001,0.004,0.002,0.008,0.003,0.012l1.53,5.582h0.093c13.153,43.331,39.968,82.279,75.99,110.158
		c36.778,28.464,80.484,44.193,126.827,45.745v183.477h-81.763v15.208h178.731v-15.208h-81.761V282.897
		c46.343-1.552,90.048-17.281,126.827-45.745c36.021-27.879,62.837-66.827,75.99-110.158h0.093l1.53-5.582
		c0.001-0.004,0.002-0.008,0.003-0.012l2.634-9.613h-0.239c3.591-15.905,5.415-32.211,5.415-48.608V0H475.855z M450.481,126.993
		c-12.685,38.559-37.048,73.124-69.359,98.132c-36.096,27.936-79.362,42.702-125.123,42.702s-89.027-14.766-125.123-42.702
		c-32.312-25.008-56.674-59.572-69.359-98.132h82.619v-15.208H57.173c-3.865-15.862-5.822-32.185-5.822-48.609V15.208h409.296
		v47.969c0,16.424-1.957,32.746-5.821,48.608h-290.41v15.208h286.065V126.993z"/>
</g>
<g>
</g>
<g>
</g>
<g>
</g>
<g>
</g>
<g>
</g>
<g>
</g>
<g>
</g>
<g>
</g>
<g>
</g>
<g>
</g>
<g>
</g>
<g>
</g>
<g>
</g>
<g>
</g>
<g>
</g>
</svg>
